<?xml version="1.0" encoding="UTF-8" standalone="no"?>
<svg width="39px" height="31px" viewBox="0 0 39 31" version="1.1" xmlns="http://www.w3.org/2000/svg" xmlns:xlink="http://www.w3.org/1999/xlink" xmlns:sketch="http://www.bohemiancoding.com/sketch/ns">
    <!-- Generator: Sketch 3.2.2 (9983) - http://www.bohemiancoding.com/sketch -->
    <title>Artboard 6</title>
    <desc>Created with Sketch.</desc>
    <defs></defs>
    <g id="Page-1" stroke="none" stroke-width="1" fill="none" fill-rule="evenodd" sketch:type="MSPage">
        <g id="Artboard-6" sketch:type="MSArtboardGroup" fill="#FF0000">
            <path d="M19,11.25 C15.8517,11.25 13.3,13.76925 13.3,16.875 C13.3,19.981875 15.8517,22.5 19,22.5 C22.14754,22.5 24.7,19.981875 24.7,16.875 C24.7,13.76925 22.14754,11.25 19,11.25 L19,11.25 Z M34.2,5.625 L29.64,5.625 C29.013,5.625 28.33736,5.145 28.13938,4.55775 L26.96062,1.066875 C26.76188,0.48 26.087,0 25.46,0 L12.54,0 C11.913,0 11.23736,0.48 11.03938,1.06725 L9.86062,4.558125 C9.66188,5.145 8.987,5.625 8.36,5.625 L3.8,5.625 C1.71,5.625 0,7.3125 0,9.375 L0,26.25 C0,28.3125 1.71,30 3.8,30 L34.2,30 C36.29,30 38,28.3125 38,26.25 L38,9.375 C38,7.3125 36.29,5.625 34.2,5.625 L34.2,5.625 Z M19,26.25 C13.75334,26.25 9.5,22.052625 9.5,16.875 C9.5,11.69775 13.75334,7.5 19,7.5 C24.2459,7.5 28.5,11.69775 28.5,16.875 C28.5,22.052625 24.2459,26.25 19,26.25 L19,26.25 Z M32.87,11.997375 C32.13584,11.997375 31.54,11.410125 31.54,10.684875 C31.54,9.960375 32.13584,9.372375 32.87,9.372375 C33.60492,9.372375 34.2,9.960375 34.2,10.684875 C34.2,11.410125 33.60454,11.997375 32.87,11.997375 L32.87,11.997375 Z" id="Shape-2" sketch:type="MSShapeGroup"></path>
        </g>
    </g>
</svg>