<?xml version="1.0" encoding="UTF-8" standalone="no"?>
<svg width="40px" height="40px" viewBox="0 0 40 40" version="1.1" xmlns="http://www.w3.org/2000/svg" xmlns:xlink="http://www.w3.org/1999/xlink" xmlns:sketch="http://www.bohemiancoding.com/sketch/ns">
    <!-- Generator: Sketch 3.2.2 (9983) - http://www.bohemiancoding.com/sketch -->
    <title>Artboard 5</title>
    <desc>Created with Sketch.</desc>
    <defs></defs>
    <g id="Page-1" stroke="none" stroke-width="1" fill="none" fill-rule="evenodd" sketch:type="MSPage">
        <g id="Artboard-5" sketch:type="MSArtboardGroup" fill="#FF0000">
            <path d="M20,-3.55271368e-15 C14.2939212,-3.55271368e-15 9.15083839,2.41495072 5.50285448,6.26178123 C5.47772073,6.28404215 5.4446878,6.29194119 5.42099027,6.31635639 C5.38149438,6.35513348 5.36785035,6.40683626 5.3326631,6.44848572 C2.03367922,10.0166957 -3.55271368e-15,14.7697611 -3.55271368e-15,20.000359 C-3.55271368e-15,31.0281313 8.97131162,40 20,40 C31.0272522,40 40,31.0281313 40,20.000359 C40,8.97186866 31.0279703,-3.55271368e-15 20,-3.55271368e-15 L20,-3.55271368e-15 Z M3.22358264,19.999641 C3.22358264,16.1829704 4.5197659,12.6700537 6.67480521,9.84722546 L30.1511615,33.3245965 C27.3290008,35.4795971 23.8174572,36.7757571 20,36.7757571 C10.7493447,36.7757571 3.22358264,29.2501302 3.22358264,19.999641 L3.22358264,19.999641 Z M32.5166062,31.1308188 L8.8671861,7.48397752 C11.8329683,4.84282714 15.7258267,3.22280667 20,3.22280667 C29.2506553,3.22280667 36.7764174,10.7484337 36.7764174,19.999641 C36.7764174,24.2730194 35.1570859,28.166526 32.5166062,31.1308188 L32.5166062,31.1308188 Z" id="Shape-2" sketch:type="MSShapeGroup"></path>
        </g>
    </g>
</svg>