<?xml version="1.0" encoding="UTF-8" standalone="no"?>
<svg width="40px" height="40px" viewBox="0 0 40 40" version="1.1" xmlns="http://www.w3.org/2000/svg" xmlns:xlink="http://www.w3.org/1999/xlink" xmlns:sketch="http://www.bohemiancoding.com/sketch/ns">
    <!-- Generator: Sketch 3.2.2 (9983) - http://www.bohemiancoding.com/sketch -->
    <title>Artboard 11</title>
    <desc>Created with Sketch.</desc>
    <defs></defs>
    <g id="Page-1" stroke="none" stroke-width="1" fill="none" fill-rule="evenodd" sketch:type="MSPage">
        <g id="Artboard-11" sketch:type="MSArtboardGroup" fill="#FF0000">
            <path d="M33.5355556,5.74717595 C25.8733333,-1.91541665 13.4070371,-1.91541665 5.74629631,5.7453241 C-1.91592591,13.4068056 -1.91518517,25.8734722 5.74703705,33.5356945 C13.4070371,41.1964352 25.8733333,41.1964352 33.5348148,33.534213 C41.1962963,25.8734722 41.1955556,13.4075463 33.5355556,5.74717595 L33.5355556,5.74717595 Z M31.3914815,31.3916204 C24.9122222,37.8708797 14.3688889,37.8716204 7.88962964,31.3923611 C1.4088889,24.9119908 1.40962964,14.3679167 7.88962964,7.88865743 C14.3688889,1.40976854 24.9114815,1.4090278 31.3922222,7.88939817 C37.8714815,14.3686574 37.8707408,24.9127315 31.3914815,31.3916204 L31.3914815,31.3916204 Z M28.5248148,27.4075463 C28.7685185,27.9708797 28.5092593,28.6249537 27.9459259,28.8682871 C27.3825926,29.1127315 26.7288889,28.8527315 26.4851852,28.2893982 C25.4137037,25.8119908 22.8811111,24.21125 20.032963,24.21125 C17.1188889,24.21125 14.5711111,25.8108797 13.542963,28.2868056 C13.3655556,28.714213 12.9518519,28.9719908 12.5166667,28.9719908 C12.3744445,28.9719908 12.2303704,28.9445834 12.0907408,28.8868056 C11.5240741,28.65125 11.2555556,28.0008797 11.4907408,27.4345834 C12.8648148,24.1264352 16.2181482,21.9890278 20.032963,21.9890278 C23.7681482,21.9893982 27.1014815,24.1160648 28.5248148,27.4075463 L28.5248148,27.4075463 Z M12.3111111,14.3223611 C12.3111111,13.0545834 13.3396296,12.0256945 14.6077778,12.0256945 C15.8755556,12.0256945 16.9040741,13.054213 16.9040741,14.3223611 C16.9040741,15.59125 15.8755556,16.6197685 14.6077778,16.6197685 C13.3396296,16.6197685 12.3111111,15.59125 12.3111111,14.3223611 L12.3111111,14.3223611 Z M22.7248148,14.3223611 C22.7248148,13.0545834 23.7544445,12.0256945 25.0222222,12.0256945 C26.29,12.0256945 27.3188889,13.054213 27.3188889,14.3223611 C27.3188889,15.59125 26.2903704,16.6197685 25.0222222,16.6197685 C23.7544445,16.6197685 22.7248148,15.59125 22.7248148,14.3223611 L22.7248148,14.3223611 Z" id="Shape-2" sketch:type="MSShapeGroup"></path>
        </g>
    </g>
</svg>