<?xml version="1.0" encoding="UTF-8" standalone="no"?>
<svg width="40px" height="41px" viewBox="0 0 40 41" version="1.1" xmlns="http://www.w3.org/2000/svg" xmlns:xlink="http://www.w3.org/1999/xlink" xmlns:sketch="http://www.bohemiancoding.com/sketch/ns">
    <!-- Generator: Sketch 3.2.2 (9983) - http://www.bohemiancoding.com/sketch -->
    <title>Artboard 7</title>
    <desc>Created with Sketch.</desc>
    <defs></defs>
    <g id="Page-1" stroke="none" stroke-width="1" fill="none" fill-rule="evenodd" sketch:type="MSPage">
        <g id="Artboard-7" sketch:type="MSArtboardGroup" fill="#6EFF6E">
            <path d="M34.1488619,34.1476304 C41.9506308,26.3466711 41.9498765,13.6529518 34.1496162,5.85236957 C26.3470931,-1.95047554 13.6525298,-1.95047554 5.85151522,5.85048383 C-1.95100792,13.6521975 -1.95025362,26.3470482 5.85226952,34.1495162 C13.6525298,41.9504755 26.3470931,41.9504755 34.1488619,34.1476304 L34.1488619,34.1476304 Z M8.03409456,8.03304773 C14.6319938,1.43557229 25.367629,1.43481799 31.9670369,8.03380203 C38.5649362,14.6316546 38.5641819,25.3683454 31.9662826,31.9658208 C25.3683833,38.5636734 14.6319938,38.5644277 8.03409456,31.9665751 C1.43468669,25.3679682 1.435441,14.6309003 8.03409456,8.03304773 L8.03409456,8.03304773 Z M22.1980426,15.7159593 C22.1980426,13.9067734 23.6704445,12.4343819 25.4803975,12.4343819 C27.2895963,12.4343819 28.7619982,13.9063962 28.7619982,15.7159593 C28.7619982,16.2368027 28.3399649,16.658833 27.8191178,16.658833 C27.2982708,16.658833 26.8762375,16.2368027 26.8762375,15.7159593 C26.8762375,14.9461973 26.250165,14.3201292 25.4803975,14.3201292 C24.7102529,14.3201292 24.0838032,14.9461973 24.0838032,15.7159593 C24.0838032,16.2368027 23.66177,16.658833 23.1409229,16.658833 C22.6200758,16.658833 22.1980426,16.2364256 22.1980426,15.7159593 L22.1980426,15.7159593 Z M11.7422542,15.7057763 C11.7422542,13.8965903 13.2146561,12.4241989 15.0246092,12.4241989 C16.8338079,12.4241989 18.3062098,13.8962132 18.3062098,15.7057763 C18.3062098,16.2266197 17.8841766,16.6486499 17.3633295,16.6486499 C16.8424824,16.6486499 16.4204492,16.2266197 16.4204492,15.7057763 C16.4204492,14.9360142 15.7943767,14.3099461 15.0246092,14.3099461 C14.2544645,14.3099461 13.6280149,14.9360142 13.6280149,15.7057763 C13.6280149,16.2266197 13.2059816,16.6486499 12.6851346,16.6486499 C12.1642875,16.6486499 11.7422542,16.2266197 11.7422542,15.7057763 L11.7422542,15.7057763 Z M11.3239925,24.1354438 C11.0841238,23.5584051 11.3575591,22.8961307 11.934979,22.6566408 C12.0767882,22.5978055 12.2238775,22.5698964 12.3687039,22.5698964 C12.8122348,22.5698964 13.2331366,22.8323924 13.4137925,23.2676229 C14.4611439,25.788867 17.0551962,27.4177755 20.0226291,27.4177755 C22.922929,27.4177755 25.5018952,25.7877356 26.5929963,23.2649828 C26.8411624,22.6913385 27.507213,22.4269568 28.0804843,22.6754982 C28.6541326,22.9236626 28.917762,23.5893314 28.669973,24.1629757 C27.2205774,27.5147029 23.8262083,29.6802951 20.0226291,29.6802951 C16.1375851,29.6806723 12.7232269,27.5041427 11.3239925,24.1354438 L11.3239925,24.1354438 Z" id="Shape-2" sketch:type="MSShapeGroup"></path>
        </g>
    </g>
</svg>