<?xml version="1.0" encoding="UTF-8" standalone="no"?>
<svg width="43px" height="40px" viewBox="0 0 43 40" version="1.1" xmlns="http://www.w3.org/2000/svg" xmlns:xlink="http://www.w3.org/1999/xlink" xmlns:sketch="http://www.bohemiancoding.com/sketch/ns">
    <!-- Generator: Sketch 3.2.2 (9983) - http://www.bohemiancoding.com/sketch -->
    <title>Artboard 3</title>
    <desc>Created with Sketch.</desc>
    <defs></defs>
    <g id="Page-1" stroke="none" stroke-width="1" fill="none" fill-rule="evenodd" sketch:type="MSPage">
        <g id="Artboard-3" sketch:type="MSArtboardGroup" fill="#F8E81C">
            <path d="M40.720596,13.6702479 L28.9963772,12.5793388 C28.2573147,12.5132231 27.6190335,12.0504132 27.3166897,11.3561983 L23.117471,1.33966942 C22.445596,-0.313223139 20.0604397,-0.313223139 19.3885647,1.33966942 L15.2229397,11.3561983 C14.9541897,12.0504132 14.2823147,12.5132231 13.5432522,12.5793388 L1.81903345,13.6702479 C0.0721584535,13.8355372 -0.633310297,15.9842975 0.676845953,17.1413223 L9.5120022,24.777686 C10.083096,25.2735537 10.3182522,26.0008264 10.1502835,26.7280992 L7.4963772,37.438843 C7.0932522,39.1247934 8.94090845,40.5132231 10.486221,39.6206612 L20.2620022,33.9677686 C20.9002835,33.6041322 21.6729397,33.6041322 22.311221,33.9677686 L32.0870022,39.6206612 C33.6323147,40.5132231 35.479971,39.1578512 35.076846,37.438843 L32.4565335,26.7280992 C32.2885647,26.0008264 32.523721,25.2735537 33.0948147,24.777686 L41.929971,17.1413223 C43.2065335,15.9842975 42.467471,13.8355372 40.720596,13.6702479 L40.720596,13.6702479 Z" id="Shape-2" sketch:type="MSShapeGroup"></path>
        </g>
    </g>
</svg>