<?xml version="1.0" encoding="UTF-8" standalone="no"?>
<svg width="621px" height="1970px" viewBox="0 0 621 1970" version="1.1" xmlns="http://www.w3.org/2000/svg" xmlns:xlink="http://www.w3.org/1999/xlink" xmlns:sketch="http://www.bohemiancoding.com/sketch/ns">
    <!-- Generator: Sketch 3.1.1 (8761) - http://www.bohemiancoding.com/sketch -->
    <title>how-it-works</title>
    <desc>Created with Sketch.</desc>
    <defs>
        <linearGradient x1="8.54492187%" y1="49.9335468%" x2="280.058132%" y2="50%" id="linearGradient-1">
            <stop stop-color="#FCFCFC" offset="0%"></stop>
            <stop stop-color="#EB83B2" offset="56.0425945%"></stop>
            <stop stop-color="#EA80B0" offset="100%"></stop>
        </linearGradient>
        <linearGradient x1="118.550458%" y1="50%" x2="0%" y2="50%" id="linearGradient-2">
            <stop stop-color="#FFFFFF" stop-opacity="0.5" offset="0%"></stop>
            <stop stop-color="#D5F2FF" stop-opacity="0.5" offset="100%"></stop>
        </linearGradient>
        <rect id="path-3" x="211" y="70" width="204" height="242"></rect>
        <rect id="path-4" x="212.5" y="907" width="204" height="242"></rect>
        <rect id="path-5" x="212.5" y="1431.5" width="204" height="242"></rect>
        <rect id="path-6" x="212.5" y="907" width="204" height="242"></rect>
        <rect id="path-7" x="213" y="1168" width="204" height="242"></rect>
        <rect id="path-8" x="207.95" y="4" width="205" height="1962.12109"></rect>
    </defs>
    <g id="Page-1" stroke="none" stroke-width="1" fill="none" fill-rule="evenodd" sketch:type="MSPage">
        <g id="how-it-works" sketch:type="MSArtboardGroup">
            <rect id="Rectangle-31" stroke="#979797" fill="#D8D8D8" sketch:type="MSShapeGroup" x="3" y="4" width="614" height="1962"></rect>
            <path d="M414.5,1086.5 C414.5,1086.5 460.974289,1112.49513 460.974289,1177.5 C460.974289,1242.50487 414.5,1268.5 414.5,1268.5" id="Line" stroke="#979797" stroke-linecap="square" sketch:type="MSShapeGroup"></path>
            <path id="Line-decoration-1" d="M414.728135,1268.36791 C418.499557,1267.1652 421.698815,1265.9415 425.380822,1264.34673 C424.036744,1262.7332 422.884677,1261.35018 421.540599,1259.73666 C419.333522,1262.84063 417.297516,1265.44326 414.728135,1268.36791 C414.728135,1268.36791 414.728135,1268.36791 414.728135,1268.36791 Z" stroke="#979797" stroke-linecap="square"></path>
            <g id="Rectangle-20">
                <use stroke="#979797" stroke-width="1.57692308" fill="url(#linearGradient-1)" fill-rule="evenodd" sketch:type="MSShapeGroup" xlink:href="#path-3"></use>
                <use stroke="none" fill="none" xlink:href="#path-3"></use>
                <use stroke="none" fill="url(#linearGradient-2)" fill-rule="evenodd" xlink:href="#path-3"></use>
            </g>
            <g id="Rectangle-21">
                <use stroke="#979797" stroke-width="1.57692308" fill="url(#linearGradient-1)" fill-rule="evenodd" sketch:type="MSShapeGroup" xlink:href="#path-4"></use>
                <use stroke="none" fill="none" xlink:href="#path-4"></use>
                <use stroke="none" fill="url(#linearGradient-2)" fill-rule="evenodd" xlink:href="#path-4"></use>
            </g>
            <g id="Rectangle-22">
                <use stroke="#979797" stroke-width="1.57692308" fill="url(#linearGradient-1)" fill-rule="evenodd" sketch:type="MSShapeGroup" xlink:href="#path-5"></use>
                <use stroke="none" fill="none" xlink:href="#path-5"></use>
                <use stroke="none" fill="url(#linearGradient-2)" fill-rule="evenodd" xlink:href="#path-5"></use>
            </g>
            <g id="Rectangle-23">
                <use stroke="#979797" stroke-width="1.57692308" fill="url(#linearGradient-1)" fill-rule="evenodd" sketch:type="MSShapeGroup" xlink:href="#path-6"></use>
                <use stroke="none" fill="none" xlink:href="#path-6"></use>
                <use stroke="none" fill="url(#linearGradient-2)" fill-rule="evenodd" xlink:href="#path-6"></use>
            </g>
            <g id="Rectangle-24">
                <use stroke="#979797" stroke-width="1.57692308" fill="url(#linearGradient-1)" fill-rule="evenodd" sketch:type="MSShapeGroup" xlink:href="#path-7"></use>
                <use stroke="none" fill="none" xlink:href="#path-7"></use>
                <use stroke="none" fill="url(#linearGradient-2)" fill-rule="evenodd" xlink:href="#path-7"></use>
            </g>
            <rect id="Rectangle-17" fill="#EA80B0" sketch:type="MSShapeGroup" x="413.45" y="4" width="203.2" height="1962.12109"></rect>
            <rect id="Rectangle-19" fill="#D5F2FF" sketch:type="MSShapeGroup" x="2.75" y="4" width="205" height="1962.12109"></rect>
            <g id="Rectangle-21">
                <use fill="url(#linearGradient-1)" fill-rule="evenodd" sketch:type="MSShapeGroup" xlink:href="#path-8"></use>
                <use fill="none" xlink:href="#path-8"></use>
                <use fill="url(#linearGradient-2)" fill-rule="evenodd" xlink:href="#path-8"></use>
            </g>
            <text id="bidder" sketch:type="MSTextLayer" font-family="Lato" font-size="47" font-weight="normal" sketch:alignment="middle" fill="#145D86">
                <tspan x="48.84" y="53.65">bidder</tspan>
            </text>
            <text id="biddie" sketch:type="MSTextLayer" font-family="Lato" font-size="47" font-weight="normal" sketch:alignment="middle" fill="#145D86">
                <tspan x="459.7945" y="53.65">biddie</tspan>
            </text>
            <text id="both" sketch:type="MSTextLayer" font-family="Lato" font-size="47" font-weight="normal" sketch:alignment="middle" fill="#145D86">
                <tspan x="267.016" y="53.65">both</tspan>
            </text>
            <text id="Sign-up" sketch:type="MSTextLayer" font-family="Lato" font-size="18" font-weight="normal" fill="#145D86">
                <tspan x="280" y="201">Sign up</tspan>
            </text>
            <text id="Create-an-account-wi" sketch:type="MSTextLayer" font-family="Lato" font-size="14" font-weight="normal" sketch:alignment="middle" fill="#145D86">
                <tspan x="231.071" y="220.5">Create an account with an </tspan>
                <tspan x="236.055" y="237.5">email. Add pictures from </tspan>
                <tspan x="223.427" y="254.5">facebook. It takes less than 3 </tspan>
                <tspan x="244.959" y="271.5">minutes (we timed it).</tspan>
            </text>
            <text id="Browse-Potential-Dat" sketch:type="MSTextLayer" font-family="Lato" font-size="18" font-weight="normal" fill="#145D86">
                <tspan x="11.8" y="424.407943">Browse Potential Dates</tspan>
            </text>
            <text id="We-also-have-the-bes" sketch:type="MSTextLayer" font-family="Lato" font-size="14" font-weight="normal" sketch:alignment="middle" fill="#145D86">
                <tspan x="39.045" y="445.5">We also have the best </tspan>
                <tspan x="16.113" y="462.5">dashboard for finding dates— </tspan>
                <tspan x="76.761" y="479.5">seriously.</tspan>
            </text>
            <text id="Make-an-Offer" sketch:type="MSTextLayer" font-family="Lato" font-size="18" font-weight="normal" fill="#145D86">
                <tspan x="50.8" y="634">Make an Offer</tspan>
            </text>
            <text id="When-you’re-ready,-m" sketch:type="MSTextLayer" font-family="Lato" font-size="14" font-weight="normal" sketch:alignment="middle" fill="#145D86">
                <tspan x="22.641" y="651">When you’re ready, make an </tspan>
                <tspan x="33.057" y="668">offer. Offers include a $$ </tspan>
                <tspan x="21.605" y="685">amount, and three times and </tspan>
                <tspan x="27.086" y="702">places so logistics are easy.</tspan>
            </text>
            <text id="Enter-Credit-Card-In" sketch:type="MSTextLayer" font-family="Lato" font-size="18" font-weight="normal" fill="#145D86">
                <tspan x="15.8" y="1130">Enter Credit Card Info</tspan>
            </text>
            <text id="After-your-biddie-ac" sketch:type="MSTextLayer" font-family="Lato" font-size="14" font-weight="normal" sketch:alignment="middle" fill="#145D86">
                <tspan x="23.771" y="1149.5">After your biddie accepts a </tspan>
                <tspan x="26.634" y="1166.5">time and place, commit by </tspan>
                <tspan x="30.281" y="1183.5">entering credit card info. </tspan>
                <tspan x="18.199" y="1200.5">You’re only charged if you go </tspan>
                <tspan x="36.707" y="1217.5">on the date, and all the </tspan>
                <tspan x="16.785" y="1234.5">money goes to charity (or the </tspan>
                <tspan x="82.837" y="1251.5">biddie).</tspan>
            </text>
            <text id="Accept-an-Offer" sketch:type="MSTextLayer" font-family="Lato" font-size="18" font-weight="normal" fill="#145D86">
                <tspan x="450" y="873">Accept an Offer</tspan>
            </text>
            <text id="Chat" sketch:type="MSTextLayer" font-family="Lato" font-size="18" font-weight="normal" fill="#145D86">
                <tspan x="298" y="1391">Chat</tspan>
            </text>
            <text id="If-credit-card-info-" sketch:type="MSTextLayer" font-family="Lato" font-size="14" font-weight="normal" sketch:alignment="middle" fill="#145D86">
                <tspan x="229.121" y="1412.5">If credit card info is entered, </tspan>
                <tspan x="226.461" y="1429.5">three hours prior to the date, </tspan>
                <tspan x="232.936" y="1446.5">an anonymous chat relay is </tspan>
                <tspan x="239.292" y="1463.5">set up via text to arrange </tspan>
                <tspan x="274.117" y="1480.5">your meetup.</tspan>
            </text>
            <text id="Meet" sketch:type="MSTextLayer" font-family="Lato" font-size="18" font-weight="normal" fill="#145D86">
                <tspan x="290" y="1645.5">Meet</tspan>
            </text>
            <text id="Meet-at-the-time-and" sketch:type="MSTextLayer" font-family="Lato" font-size="14" font-weight="normal" sketch:alignment="middle" fill="#145D86">
                <tspan x="233.713" y="1666.5">Meet at the time and place </tspan>
                <tspan x="239.586" y="1683.5">specified in the offer and </tspan>
                <tspan x="261.832" y="1700.5">have a good time.</tspan>
            </text>
            <text id="Leave-a-Review" sketch:type="MSTextLayer" font-family="Lato" font-size="18" font-weight="normal" fill="#145D86">
                <tspan x="255" y="1864.5">Leave a Review</tspan>
            </text>
            <text id="Was-your-date-too-ha" sketch:type="MSTextLayer" font-family="Lato" font-size="14" font-weight="normal" sketch:alignment="middle" fill="#145D86">
                <tspan x="229.796" y="1886">Was your date too handsy? </tspan>
                <tspan x="229.922" y="1903">Leave a review for the next </tspan>
                <tspan x="227.843" y="1920">biddie to keep bidders well-</tspan>
                <tspan x="282.548" y="1937">behaved..</tspan>
            </text>
            <text id="As-a-biddie,-just-si" sketch:type="MSTextLayer" font-family="Lato" font-size="14" font-weight="normal" sketch:alignment="middle" fill="#145D86">
                <tspan x="431.059" y="896.5">As a biddie, just sit back and </tspan>
                <tspan x="430.457" y="913.5">browse through your offers. </tspan>
                <tspan x="438.724" y="930.5">You can see reviews from </tspan>
                <tspan x="428.14" y="947.5">past dates, and it’s awesome.</tspan>
            </text>
            <g id="Rectangle-26-+-cute-icon-10" sketch:type="MSLayerGroup" transform="translate(243.000000, 66.000000)">
                <rect id="Rectangle-26" stroke="#979797" fill="#D8D8D8" sketch:type="MSShapeGroup" x="0" y="0" width="144" height="114"></rect>
                <text id="cute-icon-9" sketch:type="MSTextLayer" font-family="Domine" font-size="18.8571429" font-weight="bold" sketch:alignment="middle" fill="#FF0000">
                    <tspan x="29.5714286" y="50.25">cute icon</tspan>
                    <tspan x="27.5254286" y="72.25">goes here</tspan>
                </text>
            </g>
            <g id="Rectangle-26-+-cute-icon-11" sketch:type="MSLayerGroup" transform="translate(34.000000, 291.000000)">
                <rect id="Rectangle-26" stroke="#979797" fill="#D8D8D8" sketch:type="MSShapeGroup" x="0" y="0" width="144" height="114"></rect>
                <text id="cute-icon-9" sketch:type="MSTextLayer" font-family="Domine" font-size="18.8571429" font-weight="bold" sketch:alignment="middle" fill="#FF0000">
                    <tspan x="29.5714286" y="50.25">cute icon</tspan>
                    <tspan x="27.5254286" y="72.25">goes here</tspan>
                </text>
            </g>
            <g id="Rectangle-26-+-cute-icon-12" sketch:type="MSLayerGroup" transform="translate(34.000000, 498.000000)">
                <rect id="Rectangle-26" stroke="#979797" fill="#D8D8D8" sketch:type="MSShapeGroup" x="0" y="0" width="144" height="114"></rect>
                <text id="cute-icon-9" sketch:type="MSTextLayer" font-family="Domine" font-size="18.8571429" font-weight="bold" sketch:alignment="middle" fill="#FF0000">
                    <tspan x="29.5714286" y="50.25">cute icon</tspan>
                    <tspan x="27.5254286" y="72.25">goes here</tspan>
                </text>
            </g>
            <g id="Rectangle-26-+-cute-icon-13" sketch:type="MSLayerGroup" transform="translate(443.000000, 730.500000)">
                <rect id="Rectangle-26" stroke="#979797" fill="#D8D8D8" sketch:type="MSShapeGroup" x="0" y="0" width="144" height="114"></rect>
                <text id="cute-icon-9" sketch:type="MSTextLayer" font-family="Domine" font-size="18.8571429" font-weight="bold" sketch:alignment="middle" fill="#FF0000">
                    <tspan x="29.5714286" y="50.25">cute icon</tspan>
                    <tspan x="27.5254286" y="72.25">goes here</tspan>
                </text>
            </g>
            <g id="Rectangle-26-+-cute-icon-14" sketch:type="MSLayerGroup" transform="translate(35.000000, 990.500000)">
                <rect id="Rectangle-26" stroke="#979797" fill="#D8D8D8" sketch:type="MSShapeGroup" x="0" y="0" width="144" height="114"></rect>
                <text id="cute-icon-9" sketch:type="MSTextLayer" font-family="Domine" font-size="18.8571429" font-weight="bold" sketch:alignment="middle" fill="#FF0000">
                    <tspan x="29.5714286" y="50.25">cute icon</tspan>
                    <tspan x="27.5254286" y="72.25">goes here</tspan>
                </text>
            </g>
            <g id="Rectangle-26-+-cute-icon-15" sketch:type="MSLayerGroup" transform="translate(244.000000, 1253.500000)">
                <rect id="Rectangle-26" stroke="#979797" fill="#D8D8D8" sketch:type="MSShapeGroup" x="0" y="0" width="144" height="114"></rect>
                <text id="cute-icon-9" sketch:type="MSTextLayer" font-family="Domine" font-size="18.8571429" font-weight="bold" sketch:alignment="middle" fill="#FF0000">
                    <tspan x="29.5714286" y="50.25">cute icon</tspan>
                    <tspan x="27.5254286" y="72.25">goes here</tspan>
                </text>
            </g>
            <g id="Rectangle-26-+-cute-icon-16" sketch:type="MSLayerGroup" transform="translate(240.000000, 1510.500000)">
                <rect id="Rectangle-26" stroke="#979797" fill="#D8D8D8" sketch:type="MSShapeGroup" x="0" y="0" width="144" height="114"></rect>
                <text id="cute-icon-9" sketch:type="MSTextLayer" font-family="Domine" font-size="18.8571429" font-weight="bold" sketch:alignment="middle" fill="#FF0000">
                    <tspan x="29.5714286" y="50.25">cute icon</tspan>
                    <tspan x="27.5254286" y="72.25">goes here</tspan>
                </text>
            </g>
            <g id="Rectangle-26-+-cute-icon-17" sketch:type="MSLayerGroup" transform="translate(243.000000, 1725.500000)">
                <rect id="Rectangle-26" stroke="#979797" fill="#D8D8D8" sketch:type="MSShapeGroup" x="0" y="0" width="144" height="114"></rect>
                <text id="cute-icon-9" sketch:type="MSTextLayer" font-family="Domine" font-size="18.8571429" font-weight="bold" sketch:alignment="middle" fill="#FF0000">
                    <tspan x="29.5714286" y="50.25">cute icon</tspan>
                    <tspan x="27.5254286" y="72.25">goes here</tspan>
                </text>
            </g>
            <path d="M245.5,117.5 C245.5,117.5 202.859375,117.5 158.273438,174.632812 C113.6875,231.765625 113.5,289.5 113.5,289.5" id="Line" stroke="#979797" stroke-linecap="square" sketch:type="MSShapeGroup"></path>
            <path id="Line-decoration-1" d="M113.50374,289.226078 C114.733253,285.517314 115.891834,282.413087 117.334959,278.828912 C115.250064,278.577491 113.463011,278.361986 111.378116,278.110565 C112.009262,282.044798 112.638223,285.372922 113.50374,289.226078 C113.50374,289.226078 113.50374,289.226078 113.50374,289.226078 Z" stroke="#979797" stroke-linecap="square"></path>
            <path d="M179.5,347.5 C179.5,347.5 250.160156,364.53125 250.160156,448.585938 C250.160156,532.640625 179.5,558.5 179.5,558.5" id="Line" stroke="#979797" stroke-linecap="square" sketch:type="MSShapeGroup"></path>
            <path id="Line-decoration-1" d="M180.048274,558.287695 C183.945318,557.73339 187.304233,557.095535 191.209082,556.20935 C190.19172,554.372239 189.319695,552.797573 188.302333,550.960463 C185.535766,553.619543 183.057587,555.830253 180.048274,558.287695 C180.048274,558.287695 180.048274,558.287695 180.048274,558.287695 Z" stroke="#979797" stroke-linecap="square"></path>
            <path d="M181.5,559.5 C181.5,559.5 189.816406,640.945316 276.300781,714.109377 C362.785156,787.273438 442.8125,787.273439 442.8125,787.273439" id="Line" stroke="#979797" stroke-linecap="square" sketch:type="MSShapeGroup"></path>
            <path id="Line-decoration-1" d="M442.808841,787.273435 C439.102464,786.072277 435.963603,784.933459 432.380414,783.520912 C432.14781,785.60799 431.948436,787.396914 431.715833,789.483993 C435.623975,788.818642 438.972236,788.168235 442.808841,787.273435 C442.808841,787.273435 442.808841,787.273435 442.808841,787.273435 Z" stroke="#979797" stroke-linecap="square"></path>
            <path d="M441.878906,793.449219 C441.878906,793.449219 355.527344,788.613281 259.042969,844.835938 C162.558594,901.058594 111.5,988.5 111.5,988.5" id="Line" stroke="#979797" stroke-linecap="square" sketch:type="MSShapeGroup"></path>
            <path id="Line-decoration-1" d="M111.998871,987.665974 C114.88151,985.01804 117.37841,982.802861 120.325157,980.251238 C118.580661,979.082164 117.085379,978.080101 115.340883,976.911027 C114.112168,980.671743 113.108654,983.892438 111.998871,987.665974 C111.998871,987.665974 111.998871,987.665974 111.998871,987.665974 Z" stroke="#979797" stroke-linecap="square"></path>
            <path d="M179.5,1043.5 C179.5,1043.5 240.773438,1069.82031 284.1875,1137.06641 C327.601562,1204.3125 317.5,1253.5 317.5,1253.5" id="Line" stroke="#979797" stroke-linecap="square" sketch:type="MSShapeGroup"></path>
            <path id="Line-decoration-1" d="M317.611916,1252.877 C319.134759,1249.22313 320.286761,1246.00352 321.490898,1242.17649 C319.391407,1242.13028 317.591843,1242.09066 315.492351,1242.04445 C316.393555,1245.7734 317.04462,1249.01985 317.611916,1252.877 C317.611916,1252.877 317.611916,1252.877 317.611916,1252.877 Z" stroke="#979797" stroke-linecap="square"></path>
            <path d="M387.5,1308.5 C387.5,1308.5 458.933594,1337.87891 458.933594,1435.19141 C458.933594,1532.50391 387.5,1562.47656 387.5,1562.47656" id="Line" stroke="#979797" stroke-linecap="square" sketch:type="MSShapeGroup"></path>
            <path id="Line-decoration-1" d="M387.975046,1562.26658 C391.8587,1561.50821 395.180745,1560.69226 399.028191,1559.59658 C397.911232,1557.81827 396.953838,1556.294 395.836879,1554.51568 C393.227732,1557.3165 390.873116,1559.65385 387.975046,1562.26658 C387.975046,1562.26658 387.975046,1562.26658 387.975046,1562.26658 Z" stroke="#979797" stroke-linecap="square"></path>
            <path d="M242.5,1570.79688 C242.5,1570.79688 188.28125,1586.85156 188.28125,1680 C188.28125,1773.14844 242.5,1794.5 242.5,1794.5" id="Line" stroke="#979797" stroke-linecap="square" sketch:type="MSShapeGroup"></path>
            <path id="Line-decoration-1" d="M241.834036,1794.21165 C238.986285,1791.56505 236.737421,1789.15912 234.318812,1786.25231 C233.095498,1787.95921 232.046942,1789.42227 230.823628,1791.12917 C234.638694,1792.44627 237.951869,1793.39261 241.834036,1794.21165 C241.834036,1794.21165 241.834036,1794.21165 241.834036,1794.21165 Z" stroke="#979797" stroke-linecap="square"></path>
        </g>
    </g>
</svg>