<?xml version="1.0" encoding="UTF-8" standalone="no"?>
<svg width="1061px" height="291px" viewBox="0 0 1061 291" version="1.1" xmlns="http://www.w3.org/2000/svg" xmlns:xlink="http://www.w3.org/1999/xlink" xmlns:sketch="http://www.bohemiancoding.com/sketch/ns">
    <!-- Generator: Sketch 3.2.2 (9983) - http://www.bohemiancoding.com/sketch -->
    <title>Artboard 5</title>
    <desc>Created with Sketch.</desc>
    <defs></defs>
    <g id="Page-1" stroke="none" stroke-width="1" fill="none" fill-rule="evenodd" sketch:type="MSPage">
        <g id="Artboard-5" sketch:type="MSArtboardGroup" fill="#EA80B0">
            <path d="M186.107354,86.6913207 C186.107354,86.6913207 221.865588,66.9346159 225.529941,48.9941122 C229.194294,31.0536085 218.335368,17.6913207 206.169775,17.6913207 C194.004182,17.6913207 184.581328,32.4628949 184.581328,32.4628949 C184.581328,32.4628949 169.07489,22.8649851 158.5521,28.0103698 C148.02931,33.1557545 144.786309,47.4214316 152.507966,59.9793119 C160.229623,72.5371922 186.107354,86.6913207 186.107354,86.6913207 Z" id="Path-2" sketch:type="MSShapeGroup"></path>
            <path d="M164.638702,251.55257 C164.963521,254.869622 165.63164,258.067253 166.643066,261.145508 C168.132983,265.680036 170.303046,269.631494 173.15332,273 C176.003595,276.368506 179.501607,279.056793 183.647461,281.064941 C187.793315,283.073089 192.522109,284.077148 197.833984,284.077148 C206.384808,284.077148 213.834278,282.06903 220.182617,278.052734 C226.530956,274.036438 231.972308,268.983754 236.506836,262.894531 C236.541746,262.847652 236.576609,262.800737 236.611423,262.753789 C237.749552,264.56529 238.977872,266.264058 240.296387,267.850098 C244.766136,273.226752 250.175098,277.275377 256.523438,279.996094 C262.871777,282.71681 269.932578,284.077148 277.706055,284.077148 C285.349973,284.077148 292.054496,282.619643 297.819824,279.70459 C303.585153,276.789536 308.670225,273.064801 313.075195,268.530273 C316.055028,273.194359 320.136042,276.951483 325.318359,279.801758 C330.500677,282.652032 336.525031,284.077148 343.391602,284.077148 C351.942426,284.077148 359.391895,282.06903 365.740234,278.052734 C372.088573,274.036438 377.562314,268.983754 382.161621,262.894531 C382.214474,262.824557 382.267215,262.754506 382.319846,262.684378 C383.470168,264.521912 384.712998,266.243817 386.04834,267.850098 C390.518089,273.226752 395.927052,277.275377 402.275391,279.996094 C408.62373,282.71681 415.684531,284.077148 423.458008,284.077148 C431.101926,284.077148 437.806449,282.619643 443.571777,279.70459 C449.337106,276.789536 454.422178,273.064801 458.827148,268.530273 C461.806981,273.194359 465.887995,276.951483 471.070312,279.801758 C476.25263,282.652032 482.276984,284.077148 489.143555,284.077148 C497.694379,284.077148 505.143848,282.06903 511.492188,278.052734 C517.733334,274.104254 523.129168,269.15409 527.679846,263.202098 C529.117409,266.885105 531.041497,270.151049 533.452148,273 C536.302423,276.368506 539.800435,279.056793 543.946289,281.064941 C548.092143,283.073089 552.820937,284.077148 558.132812,284.077148 C566.683637,284.077148 574.133106,282.06903 580.481445,278.052734 C586.829784,274.036438 592.271136,268.983754 596.805664,262.894531 C598.854522,260.143208 600.738056,257.272881 602.456278,254.283532 C604.722761,257.582841 607.211777,260.615114 609.92334,263.380371 C616.466016,270.052605 623.980264,275.170067 632.466309,278.73291 C640.952354,282.295753 649.729772,284.077148 658.798828,284.077148 C668.515674,284.077148 677.131147,282.846366 684.645508,280.384766 C692.159868,277.923165 698.702446,274.684265 704.273438,270.667969 C709.844429,266.651673 714.540834,262.084824 718.362793,256.967285 C722.184752,251.849747 725.326485,246.635118 727.788086,241.323242 C730.249687,236.011367 732.09586,230.764349 733.32666,225.582031 C734.557461,220.399714 735.431964,215.800476 735.950195,211.78418 C736.338869,208.286115 735.464366,205.273938 733.32666,202.747559 C731.188954,200.221179 728.662612,198.56934 725.747559,197.791992 C722.832505,197.014645 719.982273,197.370924 717.196777,198.86084 C714.411282,200.350756 712.565109,203.298155 711.658203,207.703125 C710.492182,213.792348 708.743176,219.816702 706.411133,225.776367 C704.07909,231.736032 701.002135,237.112606 697.180176,241.90625 C693.358217,246.699894 688.661812,250.554185 683.09082,253.469238 C677.519829,256.384292 670.847695,257.841797 663.074219,257.841797 C657.891901,257.841797 653.325052,257.194017 649.373535,255.898438 C645.422018,254.602858 641.956395,252.853852 638.976562,250.651367 C635.99673,248.448882 633.437999,245.825373 631.300293,242.780762 C629.162587,239.73615 627.44597,236.529639 626.150391,233.161133 C635.737678,230.310858 644.191207,226.132677 651.51123,220.626465 C658.831254,215.120252 664.985164,208.901565 669.973145,201.970215 C674.961125,195.038865 678.718249,187.686562 681.244629,179.913086 C683.771009,172.13961 685.03418,164.560584 685.03418,157.175781 C685.03418,151.216116 684.224455,145.774764 682.60498,140.851562 C680.985506,135.928361 678.621109,131.685402 675.511719,128.122559 C672.402328,124.559715 668.612815,121.80665 664.143066,119.863281 C659.673317,117.919912 654.653023,116.948242 649.082031,116.948242 C641.438113,116.948242 633.988643,119.183083 626.733398,123.652832 C619.478154,128.122581 613.000354,134.30888 607.299805,142.211914 C601.599255,150.114948 597.000017,159.475369 593.501953,170.293457 C590.003889,181.111545 588.254883,192.803974 588.254883,205.371094 C588.254883,211.866701 588.793768,218.000056 589.871547,223.771205 L589.871547,223.771205 C589.430219,225.471558 588.95611,227.208791 588.449219,228.98291 C587.024081,233.970891 585.242686,238.602518 583.10498,242.87793 C580.967274,247.153342 578.440933,250.716132 575.525879,253.566406 C572.610825,256.416681 569.20998,257.841797 565.323242,257.841797 C562.732083,257.841797 560.723965,257.064461 559.298828,255.509766 C557.873691,253.95507 556.837243,252.141286 556.189453,250.068359 C555.541663,247.995432 555.152995,245.954925 555.023438,243.946777 C554.89388,241.938629 554.829102,240.481124 554.829102,239.574219 L554.829102,138.519531 C554.829102,133.725887 552.918151,129.612485 549.096191,126.179199 C545.274232,122.745914 540.059603,121.029297 533.452148,121.029297 C530.601874,121.029297 528.14031,121.644688 526.067383,122.875488 C523.994456,124.106289 522.958008,125.69335 522.958008,127.636719 C522.958008,129.061856 523.249509,130.616528 523.83252,132.300781 C524.41553,133.985034 524.707031,136.70571 524.707031,140.462891 L524.707031,209.090056 L524.707031,209.090056 C523.967807,210.682826 523.384802,212.61732 522.958008,214.893555 C522.051102,219.298525 520.917487,223.994929 519.557129,228.98291 C518.196771,233.970891 516.447765,238.602518 514.310059,242.87793 C512.172353,247.153342 509.646011,250.716132 506.730957,253.566406 C503.815903,256.416681 500.35028,257.841797 496.333984,257.841797 C494.001941,257.841797 491.961435,257.291184 490.212402,256.189941 C488.46337,255.088699 487.038254,253.663583 485.937012,251.914551 C484.835769,250.165519 484.026044,248.222179 483.507812,246.084473 C482.989581,243.946767 482.730469,241.776704 482.730469,239.574219 L482.730469,25.8046875 C482.730469,21.0110437 480.819518,16.8976409 476.997559,13.4643555 C473.175599,10.0310701 467.960971,8.31445312 461.353516,8.31445312 C459.928378,8.31445312 458.470873,8.41162012 456.980957,8.60595703 C455.491041,8.80029394 454.098314,9.09179493 452.802734,9.48046875 C451.507155,9.86914257 450.470707,10.3225886 449.693359,10.8408203 C448.916012,11.3590521 448.527344,12.0068321 448.527344,12.7841797 C448.527344,13.4319694 448.754067,14.0473604 449.20752,14.6303711 C449.660972,15.2133818 450.114418,15.9907178 450.567871,16.9624023 C451.021324,17.9340869 451.47477,19.2620358 451.928223,20.9462891 C452.381675,22.6305423 452.608398,24.8977722 452.608398,27.7480469 L452.608398,117.725586 C441.725532,119.280281 431.42583,122.616348 421.708984,127.733887 C411.992139,132.851425 403.441443,139.717893 396.056641,148.333496 C388.671838,156.949099 382.841818,167.248801 378.566406,179.23291 C374.290994,191.21702 372.15332,204.852788 372.15332,220.140625 C372.15332,224.472296 372.3575,228.588724 372.765861,232.489929 C371.588705,236.15924 370.186127,239.621886 368.558105,242.87793 C366.420399,247.153342 363.894058,250.716132 360.979004,253.566406 C358.06395,256.416681 354.598327,257.841797 350.582031,257.841797 C348.249988,257.841797 346.209481,257.291184 344.460449,256.189941 C342.711417,255.088699 341.286301,253.663583 340.185059,251.914551 C339.083816,250.165519 338.274091,248.222179 337.755859,246.084473 C337.237628,243.946767 336.978516,241.776704 336.978516,239.574219 L336.978516,25.8046875 C336.978516,21.0110437 335.067565,16.8976409 331.245605,13.4643555 C327.423646,10.0310701 322.209017,8.31445312 315.601562,8.31445312 C314.176425,8.31445312 312.71892,8.41162012 311.229004,8.60595703 C309.739088,8.80029394 308.346361,9.09179493 307.050781,9.48046875 C305.755202,9.86914257 304.718754,10.3225886 303.941406,10.8408203 C303.164059,11.3590521 302.775391,12.0068321 302.775391,12.7841797 C302.775391,13.4319694 303.002114,14.0473604 303.455566,14.6303711 C303.909019,15.2133818 304.362465,15.9907178 304.815918,16.9624023 C305.269371,17.9340869 305.722817,19.2620358 306.17627,20.9462891 C306.629722,22.6305423 306.856445,24.8977722 306.856445,27.7480469 L306.856445,117.725586 C295.973578,119.280281 285.673877,122.616348 275.957031,127.733887 C266.240186,132.851425 257.68949,139.717893 250.304688,148.333496 C242.919885,156.949099 237.089865,167.248801 232.814453,179.23291 C228.539041,191.21702 226.401367,204.852788 226.401367,220.140625 C226.401367,224.520029 226.610071,228.679421 227.027482,232.618819 L227.027482,232.618819 C225.822202,236.240352 224.415099,239.660036 222.806152,242.87793 C220.668446,247.153342 218.142104,250.716132 215.227051,253.566406 C212.311997,256.416681 208.911152,257.841797 205.024414,257.841797 C202.433255,257.841797 200.425137,257.064461 199,255.509766 C197.574863,253.95507 196.538415,252.141286 195.890625,250.068359 C195.242835,247.995432 194.854167,245.954925 194.724609,243.946777 C194.595051,241.938629 194.530273,240.481124 194.530273,239.574219 L194.530273,138.519531 C194.530273,133.725887 192.619322,129.612485 188.797363,126.179199 C184.975404,122.745914 179.760775,121.029297 173.15332,121.029297 C170.303046,121.029297 167.841482,121.644688 165.768555,122.875488 C163.695628,124.106289 162.65918,125.69335 162.65918,127.636719 C162.65918,129.061856 162.950681,130.616528 163.533691,132.300781 C164.116702,133.985034 164.408203,136.70571 164.408203,140.462891 L164.408203,207.314453 C163.760413,211.201191 162.723965,214.893537 161.298828,218.391602 C159.873691,221.889666 157.96274,224.934232 155.565918,227.525391 C153.169096,230.116549 150.318864,232.189445 147.015137,233.744141 C143.711409,235.298836 139.921896,236.076172 135.646484,236.076172 C134.221347,236.076172 132.82862,236.043783 131.468262,235.979004 C130.107903,235.914225 128.715176,235.622724 127.290039,235.104492 C129.362966,228.108363 130.885249,220.756061 131.856934,213.047363 C132.828618,205.338666 133.314453,197.597695 133.314453,189.824219 C133.314453,178.682236 132.11606,169.030314 129.719238,160.868164 C127.322416,152.706014 124.148294,145.969102 120.196777,140.657227 C116.24526,135.345351 111.743189,131.393893 106.69043,128.802734 C101.63767,126.211576 96.4554302,124.916016 91.1435547,124.916016 C86.4794689,124.916016 82.106954,125.822908 78.0258789,127.636719 C73.9448038,129.45053 70.3496249,132.268373 67.2402344,136.090332 C64.1308438,139.912291 61.7016689,144.770641 59.9526367,150.665527 C58.2036045,156.560414 57.3291016,163.524048 57.3291016,171.556641 C57.3291016,178.552769 58.1712155,185.516404 59.8554688,192.447754 C61.539722,199.379104 63.9688969,205.986459 67.1430664,212.27002 C70.3172359,218.55358 74.1391378,224.383599 78.6088867,229.760254 C83.0786356,235.136908 88.1637085,239.833313 93.8642578,243.849609 C91.5322149,248.125021 88.617205,251.525866 85.1191406,254.052246 C81.6210763,256.578626 77.4105064,257.841797 72.4873047,257.841797 C67.6936609,257.841797 63.5154801,256.708182 59.9526367,254.440918 C56.3897934,252.173654 53.4423945,248.999532 51.1103516,244.918457 C48.7783087,240.837382 47.0293027,236.011421 45.8632812,230.44043 C44.6972598,224.869438 44.1142578,218.780306 44.1142578,212.172852 L44.1142578,25.8046875 C44.1142578,21.0110437 42.2033069,16.8976409 38.3813477,13.4643555 C34.5593884,10.0310701 29.3447596,8.31445312 22.7373047,8.31445312 C21.3121674,8.31445312 19.8546624,8.41162012 18.3647461,8.60595703 C16.8748298,8.80029394 15.4821028,9.09179493 14.1865234,9.48046875 C12.890944,9.86914257 11.8544961,10.3225886 11.0771484,10.8408203 C10.2998008,11.3590521 9.91113281,12.0068321 9.91113281,12.7841797 C9.91113281,13.4319694 10.1378558,14.0473604 10.5913086,14.6303711 C11.0447614,15.2133818 11.4982074,15.9907178 11.9516602,16.9624023 C12.4051129,17.9340869 12.8585589,19.2620358 13.3120117,20.9462891 C13.7654645,22.6305423 13.9921875,24.8977722 13.9921875,27.7480469 L13.9921875,217.614258 C13.9921875,227.331103 15.1905805,236.270467 17.5874023,244.432617 C19.9842242,252.594767 23.5470141,259.62318 28.2758789,265.518066 C33.0047437,271.412953 38.8347635,275.979802 45.7661133,279.21875 C52.697463,282.457698 60.7623238,284.077148 69.9609375,284.077148 C81.6211521,284.077148 91.4026298,281.45364 99.3056641,276.206543 C107.208698,270.959446 113.62172,264.06059 118.544922,255.509766 C121.78387,256.546229 125.087548,257.258787 128.456055,257.647461 C131.824561,258.036135 135.322573,258.230469 138.950195,258.230469 C145.687208,258.230469 151.77634,257.194021 157.217773,255.121094 C159.859358,254.114776 162.332996,252.925271 164.638702,251.55257 L164.638702,251.55257 Z M883.699164,225.999252 C883.432713,226.981935 883.155713,227.976488 882.868164,228.98291 C881.443027,233.970891 879.661632,238.602518 877.523926,242.87793 C875.38622,247.153342 872.859878,250.716132 869.944824,253.566406 C867.029771,256.416681 863.628926,257.841797 859.742188,257.841797 C857.151029,257.841797 855.142911,257.064461 853.717773,255.509766 C852.292636,253.95507 851.256188,252.141286 850.608398,250.068359 C849.960609,247.995432 849.571941,245.954925 849.442383,243.946777 C849.312825,241.938629 849.248047,240.481124 849.248047,239.574219 L849.248047,138.519531 C849.248047,133.725887 847.337096,129.612485 843.515137,126.179199 C839.693178,122.745914 834.478549,121.029297 827.871094,121.029297 C825.020819,121.029297 822.559255,121.644688 820.486328,122.875488 C818.413401,124.106289 817.376953,125.69335 817.376953,127.636719 C817.376953,129.061856 817.668454,130.616528 818.251465,132.300781 C818.834476,133.985034 819.125977,136.70571 819.125977,140.462891 L819.125977,246.764648 C819.125977,251.817408 819.870924,256.61098 821.36084,261.145508 C822.850756,265.680036 825.020819,269.631494 827.871094,273 C830.721368,276.368506 834.21938,279.056793 838.365234,281.064941 C842.511088,283.073089 847.239882,284.077148 852.551758,284.077148 C861.102582,284.077148 868.552052,282.06903 874.900391,278.052734 C881.24873,274.036438 886.690081,268.983754 891.224609,262.894531 C892.303756,261.445391 893.337039,259.963237 894.32446,258.448066 C895.068263,259.66978 895.848782,260.860431 896.666016,262.02002 C901.459659,268.821811 907.484013,274.198385 914.739258,278.149902 C921.994502,282.101419 930.674754,284.077148 940.780273,284.077148 C952.181372,284.077148 961.768516,281.45364 969.541992,276.206543 C977.315469,270.959446 983.663712,264.06059 988.586914,255.509766 C991.566747,256.546229 994.643702,257.258787 997.817871,257.647461 C1000.99204,258.036135 1004.39289,258.230469 1008.02051,258.230469 C1014.75752,258.230469 1020.84665,257.194021 1026.28809,255.121094 C1031.72952,253.048167 1036.45831,250.197935 1040.47461,246.570312 C1044.49091,242.94269 1047.82697,238.764509 1050.48291,234.035645 C1053.13885,229.30678 1055.0498,224.221707 1056.21582,218.780273 C1057.12273,215.023093 1057.21989,211.946138 1056.50732,209.549316 C1055.79476,207.152495 1054.62875,205.273933 1053.00928,203.913574 C1051.3898,202.553216 1049.51124,201.678713 1047.37354,201.290039 C1045.23583,200.901365 1043.19532,200.901365 1041.25195,201.290039 C1039.30858,201.678713 1037.59197,202.391271 1036.10205,203.427734 C1034.61213,204.464198 1033.73763,205.759758 1033.47852,207.314453 C1032.83073,211.201191 1031.79428,214.893537 1030.36914,218.391602 C1028.944,221.889666 1027.06544,224.934232 1024.7334,227.525391 C1022.40136,230.116549 1019.58351,232.189445 1016.27979,233.744141 C1012.97606,235.298836 1009.18654,236.076172 1004.91113,236.076172 C1003.486,236.076172 1002.15805,236.043783 1000.92725,235.979004 C999.696446,235.914225 998.368497,235.622724 996.943359,235.104492 C998.886728,228.367479 1000.31184,221.371456 1001.21875,214.116211 C1002.12566,206.860966 1002.5791,199.541053 1002.5791,192.15625 C1002.5791,182.568962 1001.7046,173.694377 999.955566,165.532227 C998.206534,157.370076 995.777359,150.309275 992.667969,144.349609 C989.558578,138.389944 985.93101,133.725928 981.785156,130.357422 C977.639302,126.988915 973.234398,125.304688 968.570312,125.304688 C963.258437,125.304688 958.594421,126.567858 954.578125,129.094238 C950.561829,131.620618 947.225762,135.021463 944.569824,139.296875 C941.913886,143.572287 939.905769,148.527804 938.54541,154.163574 C937.185052,159.799345 936.504883,165.726531 936.504883,171.945312 C936.504883,186.326244 938.934058,199.7029 943.79248,212.075684 C948.650903,224.448467 955.744094,234.651002 965.072266,242.683594 C962.481107,247.218122 959.339374,250.878079 955.646973,253.663574 C951.954571,256.44907 947.258167,257.841797 941.557617,257.841797 C937.670879,257.841797 934.010922,256.805349 930.577637,254.732422 C927.144351,252.659495 924.099785,249.517762 921.443848,245.307129 C918.78791,241.096496 916.715014,235.881867 915.225098,229.663086 C913.735181,223.444305 912.990234,216.124391 912.990234,207.703125 C912.990234,197.856722 913.638014,189.435582 914.933594,182.439453 C916.229173,175.443324 917.816234,169.516138 919.694824,164.657715 C921.573414,159.799292 923.581532,155.750667 925.719238,152.511719 C927.856944,149.27277 929.703117,146.422538 931.257812,143.960938 C933.848971,142.276684 935.371254,139.879898 935.824707,136.770508 C936.27816,133.661117 936.019048,130.584162 935.047363,127.539551 C934.075679,124.494939 932.521007,121.839041 930.383301,119.571777 C928.245595,117.304513 925.881198,116.170898 923.290039,116.170898 C921.087554,116.170898 917.751487,118.308572 913.281738,122.583984 C908.811989,126.859396 904.309919,133.045695 899.775391,141.143066 C895.240863,149.240438 891.257016,159.086693 887.82373,170.682129 C884.390445,182.277564 882.673828,195.395109 882.673828,210.035156 C882.673828,215.512792 883.015605,220.834142 883.699164,225.999252 L883.699164,225.999252 Z M185.396484,81.5791016 C182.157536,81.5791016 179.080581,80.9313216 176.165527,79.6357422 C173.250474,78.3401628 170.724132,76.5911568 168.586426,74.3886719 C166.44872,72.1861869 164.732103,69.627456 163.436523,66.7124023 C162.140944,63.7973487 161.493164,60.6556158 161.493164,57.2871094 C161.493164,53.789045 162.140944,50.5501451 163.436523,47.5703125 C164.732103,44.5904799 166.44872,42.031749 168.586426,39.894043 C170.724132,37.756337 173.250474,36.072109 176.165527,34.8413086 C179.080581,33.6105082 182.157536,32.9951172 185.396484,32.9951172 C188.894549,32.9951172 192.133449,33.6105082 195.113281,34.8413086 C198.093114,36.072109 200.651845,37.756337 202.789551,39.894043 C204.927257,42.031749 206.611485,44.5904799 207.842285,47.5703125 C209.073086,50.5501451 209.688477,53.789045 209.688477,57.2871094 C209.688477,60.6556158 209.073086,63.7973487 207.842285,66.7124023 C206.611485,69.627456 204.927257,72.1861869 202.789551,74.3886719 C200.651845,76.5911568 198.093114,78.3401628 195.113281,79.6357422 C192.133449,80.9313216 188.894549,81.5791016 185.396484,81.5791016 Z M283.730469,257.841797 C288.912786,257.841797 293.414857,256.351903 297.236816,253.37207 C301.058776,250.392238 304.265287,246.699892 306.856445,242.294922 L306.856445,143.960938 C300.378548,145.126959 294.127472,147.297022 288.103027,150.471191 C282.078583,153.645361 276.766787,158.082654 272.16748,163.783203 C267.568174,169.483752 263.908217,176.706499 261.1875,185.45166 C258.466783,194.196821 257.106445,204.788024 257.106445,217.225586 C257.106445,224.480831 257.851392,230.667129 259.341309,235.784668 C260.831225,240.902207 262.774565,245.080387 265.171387,248.319336 C267.568209,251.558284 270.386052,253.95507 273.625,255.509766 C276.863948,257.064461 280.232404,257.841797 283.730469,257.841797 Z M545.695312,81.5791016 C542.456364,81.5791016 539.379409,80.9313216 536.464355,79.6357422 C533.549302,78.3401628 531.02296,76.5911568 528.885254,74.3886719 C526.747548,72.1861869 525.030931,69.627456 523.735352,66.7124023 C522.439772,63.7973487 521.791992,60.6556158 521.791992,57.2871094 C521.791992,53.789045 522.439772,50.5501451 523.735352,47.5703125 C525.030931,44.5904799 526.747548,42.031749 528.885254,39.894043 C531.02296,37.756337 533.549302,36.072109 536.464355,34.8413086 C539.379409,33.6105082 542.456364,32.9951172 545.695312,32.9951172 C549.193377,32.9951172 552.432277,33.6105082 555.412109,34.8413086 C558.391942,36.072109 560.950673,37.756337 563.088379,39.894043 C565.226085,42.031749 566.910313,44.5904799 568.141113,47.5703125 C569.371914,50.5501451 569.987305,53.789045 569.987305,57.2871094 C569.987305,60.6556158 569.371914,63.7973487 568.141113,66.7124023 C566.910313,69.627456 565.226085,72.1861869 563.088379,74.3886719 C560.950673,76.5911568 558.391942,78.3401628 555.412109,79.6357422 C552.432277,80.9313216 549.193377,81.5791016 545.695312,81.5791016 Z M620.90332,204.205078 C620.90332,205.3711 620.968098,206.537104 621.097656,207.703125 C621.227214,208.869146 621.291992,210.099928 621.291992,211.395508 C626.215194,209.063465 630.684876,206.083677 634.701172,202.456055 C638.717468,198.828432 642.150702,194.682641 645.000977,190.018555 C647.851251,185.354469 650.053703,180.269396 651.608398,174.763184 C653.163094,169.256971 653.94043,163.524118 653.94043,157.564453 C653.94043,153.159483 653.195483,149.726249 651.705566,147.264648 C650.21565,144.803048 648.175143,143.572266 645.583984,143.572266 C642.345036,143.572266 639.462415,144.673492 636.936035,146.875977 C634.409655,149.078462 632.207203,151.961082 630.328613,155.523926 C628.450023,159.086769 626.895351,163.103005 625.664551,167.572754 C624.43375,172.042503 623.429691,176.544574 622.652344,181.079102 C621.874996,185.613629 621.356772,189.921366 621.097656,194.002441 C620.83854,198.083516 620.773762,201.484361 620.90332,204.205078 Z M754.217773,243.849609 C759.659207,243.849609 764.258445,245.695782 768.015625,249.388184 C771.772805,253.080585 773.651367,257.647434 773.651367,263.088867 C773.651367,265.550468 773.133143,267.914865 772.09668,270.182129 C771.060216,272.449393 769.667489,274.425122 767.918457,276.109375 C766.169425,277.793628 764.128918,279.153966 761.796875,280.19043 C759.464832,281.226893 756.93849,281.745117 754.217773,281.745117 C751.626615,281.745117 749.19744,281.226893 746.930176,280.19043 C744.662912,279.153966 742.654794,277.793628 740.905762,276.109375 C739.15673,274.425122 737.764003,272.449393 736.727539,270.182129 C735.691076,267.914865 735.172852,265.550468 735.172852,263.088867 C735.172852,260.36815 735.691076,257.841809 736.727539,255.509766 C737.764003,253.177723 739.15673,251.137216 740.905762,249.388184 C742.654794,247.639151 744.662912,246.278813 746.930176,245.307129 C749.19744,244.335444 751.626615,243.849609 754.217773,243.849609 Z M840.114258,81.5791016 C836.875309,81.5791016 833.798354,80.9313216 830.883301,79.6357422 C827.968247,78.3401628 825.441905,76.5911568 823.304199,74.3886719 C821.166493,72.1861869 819.449876,69.627456 818.154297,66.7124023 C816.858717,63.7973487 816.210938,60.6556158 816.210938,57.2871094 C816.210938,53.789045 816.858717,50.5501451 818.154297,47.5703125 C819.449876,44.5904799 821.166493,42.031749 823.304199,39.894043 C825.441905,37.756337 827.968247,36.072109 830.883301,34.8413086 C833.798354,33.6105082 836.875309,32.9951172 840.114258,32.9951172 C843.612322,32.9951172 846.851222,33.6105082 849.831055,34.8413086 C852.810887,36.072109 855.369618,37.756337 857.507324,39.894043 C859.64503,42.031749 861.329258,44.5904799 862.560059,47.5703125 C863.790859,50.5501451 864.40625,53.789045 864.40625,57.2871094 C864.40625,60.6556158 863.790859,63.7973487 862.560059,66.7124023 C861.329258,69.627456 859.64503,72.1861869 857.507324,74.3886719 C855.369618,76.5911568 852.810887,78.3401628 849.831055,79.6357422 C846.851222,80.9313216 843.612322,81.5791016 840.114258,81.5791016 Z M957.493164,170.390625 C957.493164,179.330123 958.885891,187.816041 961.671387,195.848633 C964.456882,203.881225 968.116839,210.877249 972.651367,216.836914 C973.428715,210.488575 973.817383,204.399443 973.817383,198.569336 C973.817383,191.832323 973.720216,185.581246 973.525879,179.815918 C973.331542,174.05059 972.878096,169.095073 972.165527,164.949219 C971.452959,160.803365 970.481289,157.532076 969.250488,155.135254 C968.019688,152.738432 966.367849,151.540039 964.294922,151.540039 C959.760394,151.540039 957.493164,157.823505 957.493164,170.390625 Z M100.95713,220.263689 C100.95713,220.263689 105.549192,196.983252 100.957131,172.712776 C96.3650695,148.442299 87.9816302,151.684125 87.9816302,151.684125 C87.9816302,151.684125 76.7573491,150.819383 81.3591753,175.14147 C85.9610015,199.463557 100.95713,220.263689 100.95713,220.263689 Z M452.089996,144.110001 L452.919626,241.898255 C452.919626,241.898255 442.022212,263.85661 422.772691,256.867246 C403.523169,249.877881 401.90999,226.248581 403.311943,205.501622 C407.123842,149.090817 452.089996,144.110001 452.089996,144.110001 Z" id="biddie.io" sketch:type="MSShapeGroup"></path>
        </g>
    </g>
</svg>