<?xml version="1.0" encoding="UTF-8" standalone="no"?>
<svg width="29px" height="31px" viewBox="0 0 29 31" version="1.1" xmlns="http://www.w3.org/2000/svg" xmlns:xlink="http://www.w3.org/1999/xlink" xmlns:sketch="http://www.bohemiancoding.com/sketch/ns">
    <!-- Generator: Sketch 3.2.2 (9983) - http://www.bohemiancoding.com/sketch -->
    <title>Artboard 52</title>
    <desc>Created with Sketch.</desc>
    <defs></defs>
    <g id="Page-1" stroke="none" stroke-width="1" fill="none" fill-rule="evenodd" sketch:type="MSPage">
        <g id="Artboard-52" sketch:type="MSArtboardGroup" fill="#145D86">
            <g id="Oval-125-+-Path-383" sketch:type="MSLayerGroup">
                <path d="M11.5,23 C17.8512746,23 23,17.8512746 23,11.5 C23,5.14872538 17.8512746,0 11.5,0 C5.14872538,0 0,5.14872538 0,11.5 C0,17.8512746 5.14872538,23 11.5,23 Z M11.5,19 C15.6421356,19 19,15.6421356 19,11.5 C19,7.35786438 15.6421356,4 11.5,4 C7.35786438,4 4,7.35786438 4,11.5 C4,15.6421356 7.35786438,19 11.5,19 Z" id="Oval-125" sketch:type="MSShapeGroup"></path>
                <path d="M24.1979951,30.8960893 L28.1198003,26.7409703 L20.2717738,18.2139788 L16.6274427,21.2812817 L24.1979951,30.8960893 Z" id="Path-383" sketch:type="MSShapeGroup"></path>
            </g>
        </g>
    </g>
</svg>