<?xml version="1.0" encoding="UTF-8" standalone="no"?>
<svg width="32px" height="30px" viewBox="0 0 32 30" version="1.1" xmlns="http://www.w3.org/2000/svg" xmlns:xlink="http://www.w3.org/1999/xlink" xmlns:sketch="http://www.bohemiancoding.com/sketch/ns">
    <!-- Generator: Sketch 3.2.2 (9983) - http://www.bohemiancoding.com/sketch -->
    <title>poke</title>
    <desc>Created with Sketch.</desc>
    <defs></defs>
    <g id="Page-1" stroke="none" stroke-width="1" fill="none" fill-rule="evenodd" sketch:type="MSPage">
        <g id="poke" sketch:type="MSArtboardGroup" fill="#EA80B0">
            <path d="M0.23249697,11.5119637 L0,26.1632541 C0,26.1632541 2.2869708,28.8444629 9.22838458,29.7985879 C16.1697984,30.752713 19.9398173,28.0772339 19.9398173,26.7882647 C19.9398173,25.4992954 19.2662733,24.8413393 19.2662733,24.8413393 C19.2662733,24.8413393 22.1023141,24.263462 22.1023141,22.3276549 C22.1023141,20.3918478 20.442282,19.6559955 20.442282,19.6559955 C20.442282,19.6559955 23.2304671,19.3147396 23.4029507,17.3833662 C23.5754343,15.4519928 21.6388252,14.4237231 21.6388252,14.4237231 C21.6388252,14.4237231 29.5455698,14.5194901 30.2657012,14.3918007 C30.9858327,14.2641113 32,13.6779122 32,11.8699311 C32,10.06195 31.3420379,9.36374962 30.2657023,9.18674422 C29.1893667,9.00973882 14.1111024,9.08204147 14.1111024,9.08204147 C14.1111024,9.08204147 13.1550666,8.85094512 12.9264368,7.82117487 C12.6978071,6.79140461 14.9325811,3.84772276 15.1492144,2.84758986 C15.3658477,1.84745696 15.4754699,1.24563787 13.5500422,0.344307527 C11.6246145,-0.557022811 10.5668555,0.542253677 10.1262845,1.01686066 C9.68571352,1.49146765 7.62498567,5.24571941 5.43468705,7.56913797 C3.24438843,9.89255653 0.23249697,11.5119637 0.23249697,11.5119637 Z" id="Path-24" sketch:type="MSShapeGroup"></path>
        </g>
    </g>
</svg>